{"title":"Ramayana The Legend of Prince Rama (1992)","uid":7223399,"size":719946303,"categoryP":"video","categoryS":"movies","magnet":"?xt=urn:btih:304588e82a7f4d918140a38e69b3a655f98b27ab&amp;dn=Ramayana+The+Legend+of+Prince+Rama+%281992%29&amp;tr=udp%3A%2F%2Ftracker.openbittorrent.com%3A80&amp;tr=udp%3A%2F%2Fopen.demonii.com%3A1337&amp;tr=udp%3A%2F%2Ftracker.coppersurfer.tk%3A6969&amp;tr=udp%3A%2F%2Fexodus.desync.com%3A6969","seeders":0,"leechers":4,"uploader":"UTSABGIRI","files":2,"time":1335597513,"description":"The main attraction is voice of Ravana by Lt Amresh Puri sir, and ram by Mr. Arun Govil sir Animation amazing classic touch. Screenshots included.\n\nMedia Info :\n \nGeneral\nComplete name                            : Ramayana The Legend of Prince Rama Format                                   : MPEG-4\nFormat profile                           : Base Media\nCodec ID                                 : isom\nFile size                                : 686 MiB\nDuration                                 : 2h 12mn\nOverall bit rate mode                    : Variable\nOverall bit rate                         : 726 Kbps\nWriting application                      : Lavf52.61.0\n\nVideo\nID                                       : 1\nFormat                                   : MPEG-4 Visual\nFormat profile                           : Simple@L3\nFormat settings, BVOP                    : No\nFormat settings, QPel                    : No\nFormat settings, GMC                     : No warppoints\nFormat settings, Matrix                  : Default (H.263)\nCodec ID                                 : 20\nDuration                                 : 2h 12mn\nBit rate                                 : 640 Kbps\nWidth                                    : 640 pixels\nHeight                                   : 480 pixels\nDisplay aspect ratio                     : 4:3\nFrame rate mode                          : Variable\nFrame rate                               : 25.000 fps\nOriginal frame rate                      : 29.970 fps\nMinimum frame rate                       : 14.985 fps\nMaximum frame rate                       : 29.970 fps\nColor space                              : YUV\nChroma subsampling                       : 4:2:0\nBit depth                                : 8 bits\nScan type                                : Progressive\nCompression mode                         : Lossy\nBits/(Pixel*Frame)                       : 0.083\nStream size                              : 604 MiB (88%)\nWriting library                          : XviD 1.2.1 (UTC 2008-12-04)\n\nAudio\nID                                       : 2\nFormat                                   : AAC\nFormat/Info                              : Advanced Audio Codec\nFormat profile                           : LC\nCodec ID                                 : 40\nDuration                                 : 2h 12mn\nBit rate mode                            : Variable\nBit rate                                 : 82.7 Kbps\nChannel(s)                               : 2 channels\nChannel positions                        : Front: L R\nSampling rate                            : 24.0 KHz\nCompression mode                         : Lossy\nStream size                              : 78.1 MiB (11%)\n\n","torrent":{"xt":"urn:btih:304588e82a7f4d918140a38e69b3a655f98b27ab","amp;dn":"Ramayana+The+Legend+of+Prince+Rama+%281992%29","amp;tr":["udp%3A%2F%2Ftracker.openbittorrent.com%3A80","udp%3A%2F%2Fopen.demonii.com%3A1337","udp%3A%2F%2Ftracker.coppersurfer.tk%3A6969","udp%3A%2F%2Fexodus.desync.com%3A6969"],"infoHash":"304588e82a7f4d918140a38e69b3a655f98b27ab","infoHashBuffer":{"type":"Buffer","data":[48,69,136,232,42,127,77,145,129,64,163,142,105,179,166,85,249,139,39,171]},"announce":[],"urlList":[]}}